<?xml version="1.0" encoding="UTF-8" standalone="no"?><!DOCTYPE svg PUBLIC "-//W3C//DTD SVG 1.1//EN" "http://www.w3.org/Graphics/SVG/1.1/DTD/svg11.dtd"><svg width="100%" height="100%" viewBox="0 0 1439 901" version="1.1" xmlns="http://www.w3.org/2000/svg" xmlns:xlink="http://www.w3.org/1999/xlink" xml:space="preserve" xmlns:serif="http://www.serif.com/" style="fill-rule:evenodd;clip-rule:evenodd;stroke-linejoin:round;stroke-miterlimit:2;"><rect id="Main-Logo--Transparent-" serif:id="Main Logo (Transparent)" x="-0" y="0" width="1438.3" height="900.057" style="fill:none;"/><g><path d="M472.761,40.424c-13.854,-0.046 -27.991,2.091 -42.131,6.832c-0.301,0.101 -0.601,0.209 -0.898,0.322c0,0 -266.695,101.972 -320.104,123.242c-48.495,19.314 -88.669,75.508 -88.669,129.845c-0,45.447 0.277,327.821 0.277,402.766c-0,44.034 21.433,83.352 51.668,111.452c30.261,28.124 69.161,44.588 102.595,44.588c56.139,-0 468.983,0.358 544.213,0.009c0.86,0.104 1.735,0.154 2.622,0.154l609.243,0c22.404,0 50.24,-18.689 67.735,-47.635c25.2,-41.695 29.102,-99.769 -21.989,-131.774c-30.604,-19.171 -132.251,-81.156 -147.122,-92.37c-10.509,-7.924 -21.455,-20.025 -22.71,-37.639c-1.791,-25.139 -21.648,-367.031 -22.144,-389.305c-0.253,-11.342 -7.238,-33.967 -22.496,-56.51c-21.694,-32.052 -59.277,-63.977 -109.811,-63.977l-580.279,-0Z" style="fill:#efc26e;"/><g transform="matrix(1.91351e-16,-3.125,3.125,1.91351e-16,-560.483,1384.99)"><path d="M227.477,272.793c-2.816,-0 -5.495,-0.538 -8.037,-1.614c-2.542,-1.075 -4.781,-2.581 -6.717,-4.517c-1.936,-1.936 -3.442,-4.175 -4.518,-6.717c-1.075,-2.542 -1.613,-5.231 -1.613,-8.067c0,-2.835 0.538,-5.524 1.613,-8.067c1.076,-2.542 2.572,-4.791 4.488,-6.746c1.291,-1.252 2.709,-2.327 4.254,-3.227c1.545,-0.899 3.217,-1.603 5.016,-2.112c1.799,-0.508 3.637,-0.763 5.514,-0.763c2.816,0 5.515,0.548 8.096,1.643c2.582,1.056 4.85,2.601 6.806,4.635l1.232,1.232l-2.464,2.464l-1.232,-1.291c-1.643,-1.643 -3.54,-2.914 -5.691,-3.813c-2.151,-0.9 -4.4,-1.35 -6.747,-1.35c-4.81,0 -8.907,1.702 -12.29,5.104c-3.383,3.403 -5.075,7.5 -5.075,12.291c0,4.791 1.692,8.888 5.075,12.291c3.383,3.402 7.48,5.104 12.29,5.104c2.347,-0 4.596,-0.45 6.747,-1.35c2.151,-0.899 4.048,-2.17 5.691,-3.813l1.232,-1.291l2.464,2.464l-1.232,1.232c-1.956,2.034 -4.224,3.579 -6.806,4.635c-2.581,1.095 -5.28,1.643 -8.096,1.643Z" style="fill:#1f1d2f;fill-rule:nonzero;stroke:#1f1d2f;stroke-width:4px;"/><path d="M275.819,271.209c-2.542,1.056 -5.231,1.584 -8.067,1.584c-2.835,-0 -5.524,-0.538 -8.067,-1.614c-2.542,-1.075 -4.781,-2.581 -6.717,-4.517c-1.936,-1.936 -3.442,-4.175 -4.517,-6.717c-1.076,-2.542 -1.614,-5.231 -1.614,-8.067c0,-2.835 0.538,-5.524 1.614,-8.067c1.075,-2.542 2.581,-4.781 4.517,-6.717c1.936,-1.936 4.175,-3.442 6.717,-4.517c2.543,-1.076 5.232,-1.614 8.067,-1.614c2.836,0 5.525,0.538 8.067,1.614c2.542,1.075 4.781,2.581 6.717,4.517c1.936,1.936 3.442,4.175 4.517,6.717c1.076,2.543 1.614,5.232 1.614,8.067c-0,2.836 -0.538,5.525 -1.614,8.067c-1.075,2.542 -2.581,4.781 -4.517,6.717c-1.936,1.936 -4.175,3.452 -6.717,4.547Zm-8.096,-36.726c-4.811,0 -8.908,1.702 -12.291,5.104c-3.383,3.403 -5.075,7.5 -5.075,12.291c0,4.791 1.692,8.888 5.075,12.291c3.383,3.402 7.48,5.104 12.291,5.104c4.81,-0 8.917,-1.702 12.32,-5.104c3.402,-3.403 5.104,-7.5 5.104,-12.291c-0,-4.791 -1.702,-8.888 -5.104,-12.291c-3.403,-3.402 -7.51,-5.104 -12.32,-5.104Z" style="fill:#1f1d2f;fill-rule:nonzero;stroke:#1f1d2f;stroke-width:4px;"/><path d="M299.755,243.987l-0,28.336l-3.52,0l-0,-42.181l20.592,36.549l20.65,-36.549l0,42.181l-3.52,0l0,-28.336l-17.13,29.744l-17.072,-29.744Z" style="fill:#1f1d2f;fill-rule:nonzero;stroke:#1f1d2f;stroke-width:4px;"/><path d="M349.915,258.243l-0,14.08l-3.52,0l-0,-40.949l2.17,0c2.582,-0.117 4.811,-0.117 6.688,0c2.973,0.117 5.28,0.489 6.923,1.115c2.542,0.938 4.537,2.425 5.984,4.458c1.447,2.034 2.19,4.4 2.229,7.099c0.04,2.894 -0.664,5.495 -2.112,7.803c-1.408,2.229 -3.383,3.833 -5.925,4.81c-1.799,0.704 -3.931,1.174 -6.395,1.408c-1.72,0.157 -3.735,0.216 -6.042,0.176Zm5.162,-23.408c-1.486,-0.078 -3.207,-0.097 -5.162,-0.058l-0,19.946c2.229,0.04 4.126,-0.019 5.69,-0.176c2.152,-0.195 3.99,-0.586 5.515,-1.173c1.799,-0.704 3.188,-1.838 4.165,-3.403c1.096,-1.72 1.624,-3.676 1.584,-5.866c-0.039,-1.995 -0.567,-3.716 -1.584,-5.163c-1.016,-1.408 -2.464,-2.464 -4.341,-3.168c-1.291,-0.508 -3.246,-0.821 -5.867,-0.939Z" style="fill:#1f1d2f;fill-rule:nonzero;stroke:#1f1d2f;stroke-width:4px;"/><path d="M219.968,311.683c1.173,0.587 2.073,1.037 2.699,1.35c0.626,0.313 1.466,0.782 2.522,1.408c1.056,0.626 1.878,1.173 2.464,1.642c0.587,0.47 1.252,1.086 1.995,1.848c0.743,0.763 1.301,1.526 1.672,2.288c0.372,0.763 0.685,1.643 0.939,2.64c0.254,0.998 0.362,2.064 0.322,3.198c-0.039,0.938 -0.224,1.877 -0.557,2.816c-0.332,0.938 -0.811,1.828 -1.437,2.669c-0.626,0.841 -1.369,1.613 -2.23,2.317c-2.503,1.956 -5.514,2.934 -9.034,2.934c-3.677,-0 -6.649,-0.939 -8.918,-2.816c-1.29,-1.056 -2.248,-2.298 -2.874,-3.726c-0.626,-1.427 -0.939,-2.825 -0.939,-4.194l0,-1.76l3.52,-0l0,1.76c0,2.112 0.841,3.852 2.523,5.221c1.603,1.33 3.833,1.995 6.688,1.995c2.738,-0 5.026,-0.724 6.864,-2.171c1.877,-1.447 2.855,-3.168 2.933,-5.163c0,-0.782 -0.107,-1.544 -0.323,-2.288c-0.215,-0.743 -0.479,-1.398 -0.792,-1.965c-0.312,-0.567 -0.782,-1.154 -1.408,-1.76c-0.625,-0.606 -1.183,-1.095 -1.672,-1.467c-0.488,-0.371 -1.183,-0.811 -2.082,-1.32c-0.9,-0.508 -1.614,-0.899 -2.142,-1.173c-0.528,-0.274 -1.28,-0.645 -2.258,-1.115c-1.213,-0.586 -2.122,-1.036 -2.728,-1.349c-0.606,-0.313 -1.398,-0.753 -2.376,-1.32c-0.978,-0.567 -1.711,-1.095 -2.2,-1.584c-0.489,-0.489 -1.017,-1.056 -1.584,-1.701c-0.567,-0.646 -0.968,-1.35 -1.203,-2.112c-0.235,-0.763 -0.352,-1.594 -0.352,-2.494c0,-2.972 1.095,-5.299 3.285,-6.981c1.995,-1.564 4.713,-2.347 8.155,-2.347c3.246,0 5.945,0.704 8.096,2.112c2.425,1.604 3.637,3.677 3.637,6.219l0,1.76l-3.52,0l0,-1.76c0,-1.291 -0.684,-2.386 -2.053,-3.285c-1.525,-1.017 -3.579,-1.526 -6.16,-1.526c-2.659,0 -4.674,0.528 -6.043,1.584c-1.29,1.017 -1.936,2.425 -1.936,4.224c0,0.548 0.098,1.056 0.294,1.526c0.195,0.469 0.528,0.929 0.997,1.378c0.469,0.45 0.909,0.851 1.32,1.203c0.411,0.352 1.007,0.743 1.789,1.173c0.783,0.431 1.418,0.773 1.907,1.027c0.489,0.254 1.222,0.616 2.2,1.085Z" style="fill:#1f1d2f;fill-rule:nonzero;stroke:#1f1d2f;stroke-width:4px;"/><path d="M267.371,335.209c-2.542,1.056 -5.231,1.584 -8.067,1.584c-2.835,-0 -5.524,-0.538 -8.067,-1.614c-2.542,-1.075 -4.781,-2.581 -6.717,-4.517c-1.936,-1.936 -3.442,-4.175 -4.517,-6.717c-1.076,-2.542 -1.614,-5.231 -1.614,-8.067c0,-2.835 0.538,-5.524 1.614,-8.067c1.075,-2.542 2.581,-4.781 4.517,-6.717c1.936,-1.936 4.175,-3.442 6.717,-4.517c2.543,-1.076 5.232,-1.614 8.067,-1.614c2.836,0 5.525,0.538 8.067,1.614c2.542,1.075 4.781,2.581 6.717,4.517c1.936,1.936 3.442,4.175 4.517,6.717c1.076,2.543 1.614,5.232 1.614,8.067c-0,2.836 -0.538,5.525 -1.614,8.067c-1.075,2.542 -2.581,4.781 -4.517,6.717c-1.936,1.936 -4.175,3.452 -6.717,4.547Zm-8.096,-36.726c-4.811,0 -8.908,1.702 -12.291,5.104c-3.383,3.403 -5.075,7.5 -5.075,12.291c0,4.791 1.692,8.888 5.075,12.291c3.383,3.402 7.48,5.104 12.291,5.104c4.81,-0 8.917,-1.702 12.32,-5.104c3.402,-3.403 5.104,-7.5 5.104,-12.291c-0,-4.791 -1.702,-8.888 -5.104,-12.291c-3.403,-3.402 -7.51,-5.104 -12.32,-5.104Z" style="fill:#1f1d2f;fill-rule:nonzero;stroke:#1f1d2f;stroke-width:4px;"/><path d="M309.493,336.323l-21.706,0l-0,-40.949l3.52,0l-0,37.429l18.186,0l0,3.52Z" style="fill:#1f1d2f;fill-rule:nonzero;stroke:#1f1d2f;stroke-width:4px;"/><path d="M337.067,336.323l-21.942,0l0,-40.949l21.942,0l-0,3.461l-18.422,0l0,11.44l15.312,0l0,3.462l-15.312,-0l0,19.066l18.422,0l-0,3.52Z" style="fill:#1f1d2f;fill-rule:nonzero;stroke:#1f1d2f;stroke-width:4px;"/></g><path d="M741.675,170.193c37.385,0 207.093,-1.358 238.064,-1.358c16.473,0 40.837,19.696 42.269,36.106c2.3,26.365 15.409,320.66 15.409,335.625c0,14.965 -19.724,33.229 -34.689,33.229c-39.849,-0 -225.256,0.356 -247.334,0.356c-15.93,-0 -31.786,-13.976 -32.452,-29.891c-0.949,-22.64 -13.589,-318.114 -13.589,-341.744c-0,-16.681 10.937,-32.323 32.322,-32.323Z" style="fill:#302c4b;stroke:#322a4d;stroke-width:29.17px;stroke-linecap:round;stroke-miterlimit:1.5;"/><g><path d="M843.787,673.29l39.844,0c7.341,0 9.201,-9.031 4.01,-14.223c-5.191,-5.191 -16.75,-11.721 -23.007,-16.099c-4.944,-3.46 -8.903,-4.297 -14.937,-4.297l-42.236,0c-8.836,0 -10.896,8.124 -3.53,13.005c7.366,4.881 21.802,15.031 25.782,17.776c3.981,2.744 9.239,3.838 14.074,3.838Z" style="fill:#1f1d2f;"/><path d="M1134.96,673.29l39.844,0c7.341,0 9.201,-9.031 4.01,-14.223c-5.191,-5.191 -16.75,-11.721 -23.007,-16.099c-4.944,-3.46 -8.903,-4.297 -14.937,-4.297l-42.236,0c-8.836,0 -10.896,8.124 -3.53,13.005c7.366,4.881 21.802,15.031 25.782,17.776c3.981,2.744 9.239,3.838 14.074,3.838Z" style="fill:#1f1d2f;"/><path d="M939.378,735.729l335.817,0c7.341,0 9.201,-9.031 4.01,-14.223c-5.191,-5.191 -16.75,-11.721 -23.007,-16.099c-4.944,-3.46 -8.903,-4.297 -14.937,-4.297l-338.209,0c-8.836,0 -10.896,8.124 -3.53,13.005c7.365,4.881 21.801,15.031 25.782,17.776c3.98,2.744 9.239,3.838 14.074,3.838Z" style="fill:#1f1d2f;"/><path d="M472.761,40.424c-13.854,-0.046 -27.991,2.091 -42.131,6.832c-0.301,0.101 -0.601,0.209 -0.898,0.322c0,0 -266.695,101.972 -320.104,123.242c-48.495,19.314 -88.669,75.508 -88.669,129.845c-0,45.447 0.277,327.821 0.277,402.766c-0,44.034 21.433,83.352 51.668,111.452c30.261,28.124 69.161,44.588 102.595,44.588c56.139,-0 468.983,0.358 544.213,0.009c0.86,0.104 1.735,0.154 2.622,0.154l609.243,0c22.404,0 50.24,-18.689 67.735,-47.635c25.2,-41.695 29.102,-99.769 -21.989,-131.774c-30.604,-19.171 -132.251,-81.156 -147.122,-92.37c-10.509,-7.924 -21.455,-20.025 -22.71,-37.639c-1.791,-25.139 -21.648,-367.031 -22.144,-389.305c-0.253,-11.342 -7.238,-33.967 -22.496,-56.51c-21.694,-32.052 -59.277,-63.977 -109.811,-63.977l-580.279,-0Zm107.776,45.833c30.308,28.211 49.76,64.907 51.874,95.343c5.701,82.049 17.348,338.523 19.919,391.02c1.462,29.843 12.417,41.018 30.196,51.258c24.435,14.073 34.651,20.215 91.518,54.334c37.119,22.27 38.729,51.128 48.776,82.768c3.127,9.846 14.843,13.789 25.173,13.789c21.654,-0 472.688,0.327 494.342,0.327c25.376,0 37.269,-39.358 10.657,-56.029c-31.301,-19.608 -135.177,-83.148 -150.387,-94.617c-19.574,-14.76 -38.493,-38.167 -40.831,-70.977c-1.802,-25.283 -21.75,-369.14 -22.249,-391.541c-0.146,-6.534 -5.84,-18.853 -14.63,-31.84c-14.368,-21.228 -38.387,-43.835 -71.855,-43.835l-472.503,0Zm-134.893,4.308c34.236,-11.281 68.112,0.91 94.061,21.052c26.246,20.374 45.306,49.021 46.983,73.16c5.688,81.853 17.298,337.714 19.864,390.086c2.541,51.873 22.195,70.933 53.099,88.732c24.248,13.965 34.383,20.062 90.813,53.919c14.567,8.74 20.577,25.811 20.28,42.659c-0.458,26.003 -16.64,53.29 -48.536,53.465c-67.18,0.368 -489.868,-0.001 -546.709,-0.001c-23.423,0 -50.193,-12.624 -71.393,-32.327c-21.225,-19.726 -37.037,-46.967 -37.037,-77.879c0,-74.945 -0.277,-357.319 -0.277,-402.766c-0,-36.557 27.167,-74.27 59.794,-87.264c52.005,-20.711 306.612,-118.078 319.044,-122.832l0.014,-0.004Z" style="fill:#1f1d2f;"/><path d="M741.675,143.11c-39.304,0 -59.406,28.748 -59.406,59.406c0,23.708 12.661,320.163 13.613,342.877c1.233,29.439 30.047,55.841 59.512,55.841c22.078,-0 249.229,-0.416 289.078,-0.416c14.042,-0 30.063,-7.323 42.356,-18.641c12.622,-11.621 20.966,-27.192 20.966,-41.611c0,-15.07 -13.584,-311.429 -15.901,-337.979c-1.188,-13.62 -7.887,-26.415 -17.996,-36.745c-14.243,-14.555 -35.216,-24.014 -54.476,-24.311c-31.014,-0.478 -240.304,1.579 -277.746,1.579Zm0,27.083c37.385,0 207.093,-1.358 238.064,-1.358c16.473,0 40.837,19.696 42.269,36.106c2.3,26.365 15.409,320.66 15.409,335.625c0,14.965 -19.724,33.229 -34.689,33.229c-39.849,-0 -225.256,0.356 -247.334,0.356c-15.93,-0 -31.786,-13.976 -32.452,-29.891c-0.949,-22.64 -13.589,-318.114 -13.589,-341.744c-0,-16.681 10.937,-32.323 32.322,-32.323Z" style="fill:#1f1d2f;"/></g><g><path d="M733.381,279.027l83.445,75.918c-0,-0 -6.229,7.3 -15.154,17.761c-5.478,6.42 -11.972,14.031 -18.664,21.875c-6.271,7.35 -12.716,14.904 -18.664,21.876l-24.982,29.28c-3.539,4.147 -4.136,9.821 -1.993,14.47c0.795,1.725 1.967,3.308 3.505,4.621c5.686,4.851 14.24,4.173 19.091,-1.512l85.978,-100.771c2.859,-3.352 3.805,-7.706 2.921,-11.714c-0.583,-2.644 -1.961,-5.137 -4.11,-7.092l-93.147,-84.745c-5.529,-5.03 -14.1,-4.625 -19.13,0.903c-0.955,1.05 -1.713,2.209 -2.279,3.432c-2.412,5.223 -1.296,11.623 3.183,15.698Z" style="fill:#a4cfd9;"/><path d="M870.712,441.777l84.373,-0c7.474,-0 13.542,-6.068 13.542,-13.542c-0,-7.474 -6.068,-13.542 -13.542,-13.542l-84.373,0c-7.474,0 -13.542,6.068 -13.542,13.542c0,7.474 6.068,13.542 13.542,13.542Z" style="fill:#a4cfd9;"/></g><g><path d="M752.131,279.027l83.445,75.918c-0,-0 -6.229,7.3 -15.154,17.761c-5.478,6.42 -11.972,14.031 -18.664,21.875c-6.271,7.35 -12.716,14.904 -18.664,21.876l-24.982,29.28c-3.539,4.147 -4.136,9.821 -1.993,14.47c0.795,1.725 1.967,3.308 3.505,4.621c5.686,4.851 14.24,4.173 19.091,-1.512l85.978,-100.771c2.859,-3.352 3.805,-7.706 2.921,-11.714c-0.583,-2.644 -1.961,-5.137 -4.11,-7.092l-93.147,-84.745c-5.529,-5.03 -14.1,-4.625 -19.13,0.903c-0.955,1.05 -1.713,2.209 -2.279,3.432c-2.412,5.223 -1.296,11.623 3.183,15.698Z" style="fill:#e16e93;"/><path d="M889.462,441.777l84.373,-0c7.474,-0 13.542,-6.068 13.542,-13.542c-0,-7.474 -6.068,-13.542 -13.542,-13.542l-84.373,0c-7.474,0 -13.542,6.068 -13.542,13.542c0,7.474 6.068,13.542 13.542,13.542Z" style="fill:#e16e93;"/></g><g><path d="M742.756,279.027l83.445,75.918c-0,-0 -6.229,7.3 -15.154,17.761c-5.478,6.42 -11.972,14.031 -18.664,21.875c-6.271,7.35 -12.716,14.904 -18.664,21.876l-24.982,29.28c-3.539,4.147 -4.136,9.821 -1.993,14.47c0.795,1.725 1.967,3.308 3.505,4.621c5.686,4.851 14.24,4.173 19.091,-1.512l85.978,-100.771c2.859,-3.352 3.805,-7.706 2.921,-11.714c-0.583,-2.644 -1.961,-5.137 -4.11,-7.092l-93.147,-84.745c-5.529,-5.03 -14.1,-4.625 -19.13,0.903c-0.955,1.05 -1.713,2.209 -2.279,3.432c-2.412,5.223 -1.296,11.623 3.183,15.698Z" style="fill:#c3a6eb;"/><path d="M880.087,441.777l84.373,-0c7.474,-0 13.542,-6.068 13.542,-13.542c-0,-7.474 -6.068,-13.542 -13.542,-13.542l-84.373,0c-7.474,0 -13.542,6.068 -13.542,13.542c0,7.474 6.068,13.542 13.542,13.542Z" style="fill:#c3a6eb;"/></g></g></svg>